# xmcd
#
# Track frame offsets:
#	150
#	15509
#	31897
#	48414
#	63423
#	74792
#	90266
#	105043
#	121790
#	139490
#	155115
#	173708
#	186173
#
# Disc length: 2664 seconds
# Revision: 0
# Processed by: cddbd v1.5.2PL0 Copyright (c) Steve Scherf et al.
# Submitted via: dBpowerAMP V12.0
#
DISCID=a80a660d
DTITLE=Cedar Hill - I've Got A Thing About Doors
DYEAR=2011
DGENRE=Country
TTITLE0=I've Got A Thing About Doors
TTITLE1=Already Gone
TTITLE2=Cool Wind
TTITLE3=Stobro's Ramble
TTITLE4=A Little Bit More
TTITLE5=Led By A Child
TTITLE6=Two Dollar Ring
TTITLE7=Nails and Thorns
TTITLE8=Lainey's Waltz
TTITLE9=Who's Gonna Pray
TTITLE10=With Love From Normandy
TTITLE11=Broke Hearts Are Real
TTITLE12=Just Wanna Write A Bluegrass Song
EXTD=
EXTT0=
EXTT1=
EXTT2=
EXTT3=
EXTT4=
EXTT5=
EXTT6=
EXTT7=
EXTT8=
EXTT9=
EXTT10=
EXTT11=
EXTT12=
PLAYORDER=
